#!OML:ASF H:\MichaelJackson\Top Level 1\Subject 1\Session 1\male.ASF
:FULLY-SPECIFIED
:DEGREES
312
root 3.97037 16.717 -16.7857 7.80052 14.6065 -10.7499
lowerback -2.03801 0.244137 7.32934
upperback 1.85846 -0.0719547 6.34457
thorax 3.08139 0.0609932 2.47167
lowerneck -11.4912 -5.65311 -0.605061
upperneck 39.222 -8.51045 0.620429
head 15.892 -3.47807 -0.992492
rclavicle 2.18663e-015 4.77083e-015
rhumerus -36.8721 20.1714 -89.2867
rradius 109.163
rwrist -11.0369
rhand -38.1661 -36.5598
rfingers 7.12502
rthumb -11.1994 -426.241
lclavicle 2.18663e-015 4.77083e-015
lhumerus -69.7742 -5.36673 106.876
lradius 61.4031
lwrist 19.3222
lhand 8.15717 20.5339
lfingers 7.12502
lthumb 33.3765 47.4539
rfemur -16.6558 3.7584 30.6872
rtibia 31.1111
rfoot -19.3098 18.0293
rtoes 39.7983
lfemur -40.8577 -12.1766 -3.44265
ltibia 59.3463
lfoot -6.27188 -15.9202
ltoes 34.8797
313
root 3.98128 16.715 -16.7832 7.83132 14.3829 -10.5034
lowerback -1.89297 0.225325 7.19972
upperback 1.90644 -0.0786092 6.2559
thorax 3.04829 0.0553354 2.44943
lowerneck -11.7143 -5.59814 -0.520105
upperneck 39.1521 -8.39564 0.468062
head 15.8921 -3.43906 -1.06095
rclavicle -3.79679e-014 3.18055e-014
rhumerus -35.3701 21.2074 -88.982
rradius 111.112
rwrist -11.3002
rhand -38.5373 -37.3395
rfingers 7.12502
rthumb -11.5574 -427.001
lclavicle -3.79679e-014 3.18055e-014
lhumerus -70.2697 -5.70473 106.817
lradius 62.1977
lwrist 19.8537
lhand 6.78513 19.9999
lfingers 7.12502
lthumb 32.0711 47.1915
rfemur -16.7334 3.56726 30.3554
rtibia 31.3402
rfoot -19.2829 18.515
rtoes 39.7881
lfemur -40.4898 -12.3165 -3.55965
ltibia 58.9641
lfoot -6.3145 -16.3626
ltoes 36.1752
314
root 3.99166 16.7181 -16.7811 7.84359 14.2234 -10.24
lowerback -1.69338 0.15937 6.86566
upperback 1.93249 -0.136732 6.31278
thorax 2.96131 0.016878 2.69007
lowerneck -11.9164 -5.53699 -0.558348
upperneck 39.0784 -8.20831 0.24538
head 15.8874 -3.39757 -1.12502
rclavicle 1.5704e-014 3.26007e-014
rhumerus -33.8213 22.3037 -88.3877
rradius 112.925
rwrist -11.6156
rhand -38.8558 -38.0631
rfingers 7.12502
rthumb -11.8646 -427.707
lclavicle 1.5704e-014 3.26007e-014
lhumerus -70.813 -5.89449 106.955
lradius 63.0156
lwrist 20.2797
lhand 5.16131 19.0197
lfingers 7.12502
lthumb 30.5238 46.5108
rfemur -16.7524 3.37824 30.0093
rtibia 31.4709
rfoot -19.1857 18.9224
rtoes 39.6423
lfemur -40.1876 -12.3882 -3.72202
ltibia 58.6195
lfoot -6.06196 -16.86
ltoes 37.4067
315
root 4.00138 16.7275 -16.779 7.8408 14.1386 -9.95341
lowerback -1.4964 0.0562861 6.56102
upperback 1.96946 -0.247181 6.33495
thorax 2.88798 -0.046154 2.87682
lowerneck -12.0949 -5.45409 -0.60405
upperneck 38.9914 -8.00583 0.0765109
head 15.8751 -3.3446 -1.161
rclavicle 3.10104e-014 4.92986e-014
rhumerus -32.193 23.3033 -87.769
rradius 114.575
rwrist -11.9288
rhand -39.1536 -38.699
rfingers 7.12502
rthumb -12.1518 -428.326
lclavicle 3.10104e-014 4.92986e-014
lhumerus -71.4041 -6.11553 107.06
lradius 63.8569
lwrist 20.5689
lhand 3.48053 17.6444
lfingers 7.12502
lthumb 28.9196 45.4219
rfemur -16.7238 3.21445 29.6459
rtibia 31.5306
rfoot -19.0502 19.1947
rtoes 39.3095
lfemur -39.9578 -12.3835 -3.94533
ltibia 58.3162
lfoot -5.52501 -17.3824
ltoes 38.5087
316
root 4.01042 16.7437 -16.7769 7.82633 14.1213 -9.63939
lowerback -1.28447 -0.0793567 6.20738
upperback 2.00813 -0.399849 6.37229
thorax 2.80994 -0.131425 3.1061
lowerneck -12.2426 -5.36163 -0.690462
upperneck 38.9066 -7.78567 -0.0687308
head 15.8609 -3.28725 -1.17562
rclavicle -4.65156e-014 -1.98785e-014
rhumerus -30.5186 24.2346 -87.0646
rradius 116.081
rwrist -12.268
rhand -39.4108 -39.2724
rfingers 7.12502
rthumb -12.3998 -428.885
lclavicle -4.65156e-014 -1.98785e-014
lhumerus -72.0087 -6.31293 107.174
lradius 64.6734
lwrist 20.6609
lhand 1.94709 16.0348
lfingers 7.12502
lthumb 27.454 44.054
rfemur -16.6555 3.10245 29.2626
rtibia 31.5359
rfoot -18.8848 19.2972
rtoes 38.7601
lfemur -39.7825 -12.2914 -4.24294
ltibia 58.0377
lfoot -4.74038 -17.8947
ltoes 39.4157
317
root 4.01869 16.7673 -16.7749 7.81591 14.1564 -9.28962
lowerback -1.07423 -0.234389 5.82589
upperback 2.04987 -0.579493 6.39401
thorax 2.73862 -0.230418 3.33499
lowerneck -12.3481 -5.26905 -0.802269
upperneck 38.8267 -7.57637 -0.165046
head 15.8443 -3.23173 -1.16515
rclavicle -7.15625e-015 1.59028e-014
rhumerus -28.8205 25.0689 -86.3315
rradius 117.454
rwrist -12.6367
rhand -39.626 -39.8269
rfingers 7.12502
rthumb -12.6072 -429.426
lclavicle -7.15625e-015 1.59028e-014
lhumerus -72.6069 -6.50974 107.238
lradius 65.4402
lwrist 20.5239
lhand 0.746535 14.3441
lfingers 7.12502
lthumb 26.3052 42.5402
rfemur -16.5708 3.05148 28.8515
rtibia 31.5054
rfoot -18.6772 19.2313
rtoes 37.9985
lfemur -39.6515 -12.1041 -4.62626
ltibia 57.7604
lfoot -3.79068 -18.3687
ltoes 40.0261
